<svg width="24" height="24" version="1.1" viewBox="0 0 24 24"><g fill="none" fill-rule="evenodd" stroke="none" stroke-width="1"><g transform="translate(-810.000000, -1395.000000)"><rect width="1366" height="1997" x="0" y="0" fill="#FFF"></rect><g fill="#142B6F" fill-rule="nonzero"><g><g><g><path d="M12,1.2 C6.0357,1.2 1.2,6.0348 1.2,12 C1.2,16.5756 4.0467,20.4834 8.0643,22.0566 C7.9698,21.2025 7.8843,19.8921 8.1021,18.9597 C8.2983,18.1164 9.3684,13.5912 9.3684,13.5912 C9.3684,13.5912 9.0453,12.9441 9.0453,11.9874 C9.0453,10.4862 9.9156,9.3648 10.9992,9.3648 C11.9199,9.3648 12.3654,10.0569 12.3654,10.8858 C12.3654,11.8119 11.7759,13.197 11.4708,14.4813 C11.2161,15.5559 12.0099,16.4334 13.0701,16.4334 C14.9898,16.4334 16.4649,14.4093 16.4649,11.4879 C16.4649,8.9022 14.6073,7.0941 11.9541,7.0941 C8.8815,7.0941 7.0779,9.399 7.0779,11.7804 C7.0779,12.7083 7.4352,13.7046 7.8816,14.2446 C7.9698,14.3517 7.9824,14.4462 7.9563,14.5551 L7.6566,15.7791 C7.6089,15.9771 7.5,16.0194 7.2948,15.924 C5.9457,15.2958 5.1024,13.3239 5.1024,11.7399 C5.1024,8.3334 7.5774,5.2041 12.2385,5.2041 C15.9852,5.2041 18.8967,7.8744 18.8967,11.442 C18.8967,15.1644 16.5504,18.1596 13.2924,18.1596 C12.198,18.1596 11.1693,17.5917 10.8174,16.9194 L10.1442,19.4871 C9.9003,20.4258 9.2424,21.6021 8.8014,22.3185 C9.813,22.6308 10.8867,22.8 12,22.8 C17.9643,22.8 22.8,17.9643 22.8,12 C22.8,6.0348 17.9643,1.2 12,1.2 Z" transform="translate(0.000000, 1215.000000) translate(98.000000, 80.000000) translate(600.000000, 100.000000) translate(112.000000, 0.000000)"></path></g></g></g></g></g></g></svg>