<svg width="24" height="24" version="1.1" viewBox="0 0 24 24"><g fill="none" fill-rule="evenodd" stroke="none" stroke-width="1"><g transform="translate(-698.000000, -1395.000000)"><rect width="1366" height="1997" x="0" y="0" fill="#FFF"></rect><g fill="#142B6F"><g><g><g><path d="M13.2625568,22.8 L13.2625568,12.9472831 L16.5614974,12.9472831 L17.0553923,9.10743565 L13.2625568,9.10743565 L13.2625568,6.65586273 C13.2625568,5.54413727 13.5704567,4.7864633 15.1607337,4.7864633 L17.1889931,4.78560534 L17.1889931,1.35128694 C16.8381128,1.30457579 15.6341844,1.2 14.2335159,1.2 C11.3093231,1.2 9.30730843,2.98941849 9.30730843,6.27569113 L9.30730843,9.10743565 L6,9.10743565 L6,12.9472831 L9.30730843,12.9472831 L9.30730843,22.8 L13.2625568,22.8 Z" transform="translate(0.000000, 1215.000000) translate(98.000000, 80.000000) translate(600.000000, 100.000000)"></path></g></g></g></g></g></g></svg>