<svg width="24" height="24" version="1.1" viewBox="0 0 24 24"><g fill="none" fill-rule="evenodd" stroke="none" stroke-width="1"><g transform="translate(-754.000000, -1395.000000)"><rect width="1366" height="1997" x="0" y="0" fill="#FFF"></rect><g fill="#142B6F" fill-rule="nonzero"><g><g><g><path d="M12,3.1467 C14.8836,3.1467 15.2256,3.1575 16.365,3.2097 C19.2918,3.3429 20.6589,4.7316 20.7921,7.6368 C20.8443,8.7753 20.8542,9.1173 20.8542,12.0009 C20.8542,14.8854 20.8434,15.2265 20.7921,16.365 C20.658,19.2675 19.2945,20.6589 16.365,20.7921 C15.2256,20.8443 14.8854,20.8551 12,20.8551 C9.1164,20.8551 8.7744,20.8443 7.6359,20.7921 C4.7019,20.658 3.342,19.263 3.2088,16.3641 C3.1566,15.2256 3.1458,14.8845 3.1458,12 C3.1458,9.1164 3.1575,8.7753 3.2088,7.6359 C3.3429,4.7316 4.7064,3.342 7.6359,3.2088 C8.7753,3.1575 9.1164,3.1467 12,3.1467 Z M12,1.2 C9.0669,1.2 8.6997,1.2126 7.5477,1.2648 C3.6255,1.4448 1.4457,3.621 1.2657,7.5468 C1.2126,8.6997 1.2,9.0669 1.2,12 C1.2,14.9331 1.2126,15.3012 1.2648,16.4532 C1.4448,20.3754 3.621,22.5552 7.5468,22.7352 C8.6997,22.7874 9.0669,22.8 12,22.8 C14.9331,22.8 15.3012,22.7874 16.4532,22.7352 C20.3718,22.5552 22.557,20.379 22.7343,16.4532 C22.7874,15.3012 22.8,14.9331 22.8,12 C22.8,9.0669 22.7874,8.6997 22.7352,7.5477 C22.5588,3.6291 20.3799,1.4457 16.4541,1.2657 C15.3012,1.2126 14.9331,1.2 12,1.2 Z M12,6.4542 C8.9373,6.4542 6.4542,8.9373 6.4542,12 C6.4542,15.0627 8.9373,17.5467 12,17.5467 C15.0627,17.5467 17.5458,15.0636 17.5458,12 C17.5458,8.9373 15.0627,6.4542 12,6.4542 Z M12,15.6 C10.0119,15.6 8.4,13.989 8.4,12 C8.4,10.0119 10.0119,8.4 12,8.4 C13.9881,8.4 15.6,10.0119 15.6,12 C15.6,13.989 13.9881,15.6 12,15.6 Z M17.7654,4.9395 C17.049,4.9395 16.4685,5.52 16.4685,6.2355 C16.4685,6.951 17.049,7.5315 17.7654,7.5315 C18.4809,7.5315 19.0605,6.951 19.0605,6.2355 C19.0605,5.52 18.4809,4.9395 17.7654,4.9395 Z" transform="translate(0.000000, 1215.000000) translate(98.000000, 80.000000) translate(600.000000, 100.000000) translate(56.000000, 0.000000)"></path></g></g></g></g></g></g></svg>