<svg width="24" height="24" version="1.1" viewBox="0 0 24 24"><g fill="none" fill-rule="evenodd" stroke="none" stroke-width="1"><g transform="translate(-864.000000, -1395.000000)"><rect width="1366" height="1997" x="0" y="0" fill="#FFF"></rect><g fill="#142B6F"><g><g><g><path d="M7.547808,21.3473684 C16.604736,21.3473684 21.557664,14.0584628 21.557664,7.73810385 C21.557664,7.53098445 21.553344,7.32489085 21.543552,7.11972981 C22.504896,6.44465672 23.340672,5.60228413 24,4.64315625 C23.117664,5.02391649 22.168224,5.28046105 21.172224,5.39619053 C22.188768,4.80411441 22.969344,3.86708797 23.337408,2.75026585 C22.385856,3.2981391 21.332448,3.69671105 20.21088,3.91129085 C19.31232,2.9815383 18.032736,2.4 16.61664,2.4 C13.897248,2.4 11.691936,4.54225432 11.691936,7.18286346 C11.691936,7.55830817 11.735232,7.92321506 11.819712,8.27348091 C7.72752,8.07363541 4.098624,6.1702072 1.6704,3.27603766 C1.247136,3.9827242 1.003488,4.80411441 1.003488,5.68015207 C1.003488,7.33962515 1.872864,8.80456825 3.194688,9.66158188 C2.38704,9.63742883 1.62816,9.42182323 0.964512,9.06325768 C0.963456,9.08321425 0.963456,9.10317083 0.963456,9.12415321 C0.963456,11.4409809 2.661024,13.3749035 4.913856,13.8134819 C4.500288,13.9227768 4.06512,13.9817139 3.61584,13.9817139 C3.298656,13.9817139 2.990112,13.9512195 2.690208,13.895453 C3.316992,15.7958038 5.134752,17.1786825 7.290144,17.2176631 C5.604576,18.5005724 3.481632,19.2651703 1.17456,19.2651703 C0.777312,19.2651703 0.385344,19.2430689 0,19.198866 C2.1792,20.55554 4.766592,21.3473684 7.547808,21.3473684" transform="translate(0.000000, 1215.000000) translate(98.000000, 80.000000) translate(600.000000, 100.000000) translate(166.000000, 0.000000)"></path></g></g></g></g></g></g></svg>