<svg width="26" height="24" version="1.1" viewBox="0 0 26 24"><g fill="none" fill-rule="evenodd" stroke="none" stroke-width="1"><g fill="#142B6F" fill-rule="nonzero"><g><g><g><path d="M25.342154,5.80188679 C25.875,7.81839623 25.875,12 25.875,12 C25.875,12 25.875,16.1816038 25.342154,18.1981132 C25.0437603,19.3018868 24.1698929,20.1721698 23.0615733,20.4693396 C21.0367586,21 12.9375,21 12.9375,21 C12.9375,21 4.83824135,21 2.81342669,20.4693396 C1.70510708,20.1721698 0.831239703,19.3018868 0.532845964,18.1981132 C0,16.2028302 0,12 0,12 C0,12 0,7.81839623 0.532845964,5.80188679 C0.831239703,4.69811321 1.70510708,3.82783019 2.81342669,3.53066038 C4.83824135,3 12.9375,3 12.9375,3 C12.9375,3 21.0367586,3 23.0615733,3.53066038 C24.1698929,3.82783019 25.0437603,4.69811321 25.342154,5.80188679 Z M10.3372117,15.884434 L17.0723847,12.0212264 L10.3372117,8.13679245 L10.3372117,15.884434 Z" transform="translate(-451.000000, -953.000000) translate(135.000000, 836.000000) translate(0.000000, 117.000000) translate(316.000000, 0.000000)"></path></g></g></g></g></g></svg>